<svg height="511pt" viewBox="0 -51 511.99977 511" width="511pt" xmlns="http://www.w3.org/2000/svg"><path d="m146.0625 403.59375 360-399.335938-354.683594 272.085938zm0 0" fill="#7acefa"/><path d="m15.917969 206.878906 275.785156 171.4375c26.28125 16.339844 60.941406 5.585938 73.359375-22.761718l145.535156-332.277344c5.578125-12.738282-6.394531-26.136719-19.675781-22.019532l-467.1875 144.800782c-27.585937 8.550781-32.34375 45.570312-7.816406 60.820312zm0 0" fill="#a3defe"/><path d="m15.917969 206.878906 275.785156 171.4375c26.28125 16.339844 60.941406 5.585938 73.359375-22.761718l145.535156-332.277344c5.578125-12.738282-6.394531-26.136719-19.675781-22.019532l-467.1875 144.800782c-27.585937 8.550781-32.34375 45.570312-7.816406 60.820312zm0 0" fill="#a3defe"/><path d="m23.734375 146.058594c-27.585937 8.550781-32.34375 45.570312-7.816406 60.820312l177.113281 110.101563c-66.554688-62.824219-76.535156-139.777344-32.539062-213.308594zm0 0" fill="#7acefa"/><path d="m59.671875 234.078125 59.1875 165.203125c5.464844 15.25 27.65625 13.167969 30.1875-2.828125l15.394531-97.246094 341.621094-294.949219zm0 0" fill="#8eafe2"/><path d="m59.671875 234.078125 59.1875 165.203125c5.464844 15.25 27.65625 13.167969 30.1875-2.828125l15.394531-97.246094 341.621094-294.949219zm0 0" fill="#6a96d7"/></svg>